<svg width="23" height="27" viewBox="0 0 23 27" fill="none" xmlns="http://www.w3.org/2000/svg">
<path d="M5.04688 18.0717C5.04688 17.636 5.21678 17.2181 5.51921 16.91C5.82164 16.6019 6.23183 16.4289 6.65953 16.4289C7.08724 16.4289 7.49742 16.6019 7.79986 16.91C8.10229 17.2181 8.27219 17.636 8.27219 18.0717V19.7146C8.27219 20.1503 8.10229 20.5681 7.79986 20.8762C7.49742 21.1843 7.08724 21.3574 6.65953 21.3574C6.23183 21.3574 5.82164 21.1843 5.51921 20.8762C5.21678 20.5681 5.04688 20.1503 5.04688 19.7146V18.0717ZM14.7228 11.5003C14.7228 11.0646 14.8927 10.6467 15.1952 10.3386C15.4976 10.0305 15.9078 9.85742 16.3355 9.85742C16.7632 9.85742 17.1734 10.0305 17.4758 10.3386C17.7782 10.6467 17.9481 11.0646 17.9481 11.5003V19.7146C17.9481 20.1503 17.7782 20.5681 17.4758 20.8762C17.1734 21.1843 16.7632 21.3574 16.3355 21.3574C15.9078 21.3574 15.4976 21.1843 15.1952 20.8762C14.8927 20.5681 14.7228 20.1503 14.7228 19.7146V11.5003ZM9.88485 14.786C9.88485 14.3503 10.0548 13.9324 10.3572 13.6243C10.6596 13.3162 11.0698 13.1431 11.4975 13.1431C11.9252 13.1431 12.3354 13.3162 12.6378 13.6243C12.9403 13.9324 13.1102 14.3503 13.1102 14.786V19.7146C13.1102 20.1503 12.9403 20.5681 12.6378 20.8762C12.3354 21.1843 11.9252 21.3574 11.4975 21.3574C11.0698 21.3574 10.6596 21.1843 10.3572 20.8762C10.0548 20.5681 9.88485 20.1503 9.88485 19.7146V14.786Z" fill="black"/>
<path d="M5.04696 2.46387H3.4343C2.57889 2.46387 1.75852 2.81004 1.15366 3.42623C0.548794 4.04242 0.208984 4.87816 0.208984 5.74958V22.9996C0.208984 23.871 0.548794 24.7067 1.15366 25.3229C1.75852 25.9391 2.57889 26.2853 3.4343 26.2853H19.5609C20.4163 26.2853 21.2367 25.9391 21.8415 25.3229C22.4464 24.7067 22.7862 23.871 22.7862 22.9996V5.74958C22.7862 4.87816 22.4464 4.04242 21.8415 3.42623C21.2367 2.81004 20.4163 2.46387 19.5609 2.46387H17.9482V4.10672H19.5609C19.9886 4.10672 20.3988 4.27981 20.7012 4.58791C21.0036 4.896 21.1735 5.31387 21.1735 5.74958V22.9996C21.1735 23.4353 21.0036 23.8532 20.7012 24.1613C20.3988 24.4694 19.9886 24.6424 19.5609 24.6424H3.4343C3.0066 24.6424 2.59641 24.4694 2.29398 24.1613C1.99155 23.8532 1.82164 23.4353 1.82164 22.9996V5.74958C1.82164 5.31387 1.99155 4.896 2.29398 4.58791C2.59641 4.27981 3.0066 4.10672 3.4343 4.10672H5.04696V2.46387Z" fill="black"/>
<path d="M13.9171 1.64286C14.131 1.64286 14.3361 1.7294 14.4873 1.88345C14.6385 2.0375 14.7234 2.24643 14.7234 2.46429V4.10714C14.7234 4.325 14.6385 4.53393 14.4873 4.68798C14.3361 4.84203 14.131 4.92857 13.9171 4.92857H9.07914C8.86529 4.92857 8.6602 4.84203 8.50898 4.68798C8.35777 4.53393 8.27281 4.325 8.27281 4.10714V2.46429C8.27281 2.24643 8.35777 2.0375 8.50898 1.88345C8.6602 1.7294 8.86529 1.64286 9.07914 1.64286H13.9171ZM9.07914 0C8.43759 0 7.82231 0.259629 7.36866 0.721773C6.91501 1.18392 6.66016 1.81072 6.66016 2.46429V4.10714C6.66016 4.76071 6.91501 5.38751 7.36866 5.84966C7.82231 6.3118 8.43759 6.57143 9.07914 6.57143H13.9171C14.5587 6.57143 15.174 6.3118 15.6276 5.84966C16.0813 5.38751 16.3361 4.76071 16.3361 4.10714V2.46429C16.3361 1.81072 16.0813 1.18392 15.6276 0.721773C15.174 0.259629 14.5587 0 13.9171 0L9.07914 0Z" fill="black"/>
</svg>
