<svg width="23" height="18" viewBox="0 0 23 18" fill="none" xmlns="http://www.w3.org/2000/svg">
<path d="M21.3751 18C21.3751 18 22.7862 18 22.7862 16.5C22.7862 15 21.3751 10.5 15.7308 10.5C10.0865 10.5 8.67544 15 8.67544 16.5C8.67544 18 10.0865 18 10.0865 18H21.3751ZM10.1176 16.5C10.1071 16.4985 10.0968 16.4965 10.0865 16.494C10.0879 16.098 10.3222 14.949 11.1589 13.914C11.9378 12.9435 13.3066 12 15.7308 12C18.1536 12 19.5224 12.945 20.3027 13.914C21.1395 14.949 21.3723 16.0995 21.3751 16.494L21.3638 16.497C21.3573 16.4982 21.3507 16.4992 21.3441 16.5H10.1176ZM15.7308 7.5C16.4793 7.5 17.1971 7.18393 17.7264 6.62132C18.2556 6.05871 18.553 5.29565 18.553 4.5C18.553 3.70435 18.2556 2.94129 17.7264 2.37868C17.1971 1.81607 16.4793 1.5 15.7308 1.5C14.9823 1.5 14.2645 1.81607 13.7353 2.37868C13.206 2.94129 12.9087 3.70435 12.9087 4.5C12.9087 5.29565 13.206 6.05871 13.7353 6.62132C14.2645 7.18393 14.9823 7.5 15.7308 7.5ZM19.9641 4.5C19.9641 5.09095 19.8546 5.67611 19.6418 6.22208C19.4291 6.76804 19.1173 7.26412 18.7242 7.68198C18.3311 8.09984 17.8644 8.43131 17.3508 8.65746C16.8372 8.8836 16.2867 9 15.7308 9C15.1749 9 14.6244 8.8836 14.1108 8.65746C13.5972 8.43131 13.1306 8.09984 12.7375 7.68198C12.3444 7.26412 12.0326 6.76804 11.8198 6.22208C11.6071 5.67611 11.4976 5.09095 11.4976 4.5C11.4976 3.30653 11.9436 2.16193 12.7375 1.31802C13.5314 0.474106 14.6081 0 15.7308 0C16.8535 0 17.9303 0.474106 18.7242 1.31802C19.5181 2.16193 19.9641 3.30653 19.9641 4.5ZM9.99621 10.92C9.43175 10.7311 8.8499 10.6069 8.26058 10.5495C7.92945 10.516 7.59699 10.4995 7.26437 10.5C1.62006 10.5 0.208984 15 0.208984 16.5C0.208984 17.5005 0.678873 18 1.62006 18H7.56916C7.35997 17.5317 7.25565 17.0183 7.26437 16.5C7.26437 14.985 7.79634 13.437 8.80244 12.144C9.14533 11.703 9.54466 11.2905 9.99621 10.92ZM7.15148 12C6.31634 13.3339 5.8652 14.8977 5.85329 16.5H1.62006C1.62006 16.11 1.85148 14.955 2.69248 13.914C3.46151 12.96 4.7978 12.03 7.15148 12.0015V12ZM2.3256 5.25C2.3256 4.05653 2.7716 2.91193 3.56548 2.06802C4.35937 1.22411 5.43611 0.75 6.55883 0.75C7.68155 0.75 8.75829 1.22411 9.55217 2.06802C10.3461 2.91193 10.7921 4.05653 10.7921 5.25C10.7921 6.44347 10.3461 7.58807 9.55217 8.43198C8.75829 9.27589 7.68155 9.75 6.55883 9.75C5.43611 9.75 4.35937 9.27589 3.56548 8.43198C2.7716 7.58807 2.3256 6.44347 2.3256 5.25ZM6.55883 2.25C5.81035 2.25 5.09252 2.56607 4.56326 3.12868C4.03401 3.69129 3.73667 4.45435 3.73667 5.25C3.73667 6.04565 4.03401 6.80871 4.56326 7.37132C5.09252 7.93393 5.81035 8.25 6.55883 8.25C7.30731 8.25 8.02513 7.93393 8.55439 7.37132C9.08365 6.80871 9.38098 6.04565 9.38098 5.25C9.38098 4.45435 9.08365 3.69129 8.55439 3.12868C8.02513 2.56607 7.30731 2.25 6.55883 2.25Z" fill="black"/>
</svg>
